<?xml version="1.0" standalone="no"?>
<!DOCTYPE svg PUBLIC "-//W3C//DTD SVG 20010904//EN"
 "http://www.w3.org/TR/2001/REC-SVG-20010904/DTD/svg10.dtd">
<svg version="1.0" xmlns="http://www.w3.org/2000/svg"
 width="202.000000pt" height="202.000000pt" viewBox="0 0 202.000000 202.000000"
 preserveAspectRatio="xMidYMid meet">

<g transform="translate(0.000000,202.000000) scale(0.100000,-0.100000)"
fill="#000000" stroke="none">
<path d="M347 1372 c-20 -20 -37 -45 -37 -54 0 -50 132 -82 338 -82 94 -1 152
-5 152 -11 0 -5 -15 -37 -33 -70 -26 -49 -39 -62 -72 -75 -79 -29 -153 -79
-238 -160 -72 -68 -94 -96 -134 -175 -43 -84 -46 -96 -33 -110 27 -26 183 -19
245 12 71 36 191 151 263 252 l32 44 0 -31 c0 -36 22 -52 72 -52 84 0 108 11
171 76 34 35 64 64 67 64 3 0 11 -13 17 -29 8 -23 18 -30 51 -36 63 -10 131 4
189 41 28 19 54 34 56 34 3 0 8 -17 12 -37 16 -87 71 -119 187 -109 51 4 89
16 146 43 42 21 77 44 77 52 0 8 -11 22 -25 32 -24 19 -27 19 -97 -1 -99 -27
-109 -26 -122 12 -7 18 -35 54 -64 80 -64 59 -101 63 -196 18 -35 -17 -67 -27
-70 -23 -18 24 -103 73 -128 73 -24 0 -127 -57 -143 -79 -3 -4 -20 -17 -37
-29 l-32 -23 -31 22 c-16 13 -30 23 -30 23 0 1 25 50 55 110 30 59 55 112 55
116 0 3 -18 21 -40 39 l-40 32 -118 -17 c-139 -20 -222 -11 -327 37 -35 16
-73 29 -82 29 -10 -1 -35 -18 -56 -38z m227 -527 c-47 -54 -54 -60 -54 -50 0
7 91 105 97 105 2 0 -17 -25 -43 -55z"/>
</g>
</svg>
